<?xml version="1.0" encoding="utf-8"?>
<!-- Generator: Adobe Illustrator 21.1.0, SVG Export Plug-In . SVG Version: 6.00 Build 0)  -->
<svg version="1.1" id="Слой_1" xmlns="http://www.w3.org/2000/svg" xmlns:xlink="http://www.w3.org/1999/xlink" x="0px" y="0px"
	 viewBox="0 0 512 512" style="enable-background:new 0 0 512 512;" xml:space="preserve">
<style type="text/css">
	.st0{fill:#8CDDFF;}
</style>
<title>my-telegram</title>
<path class="st0" d="M380.9,440.1c0-146.5,0-292.6,0-439.1c3.9,1.6,7.3,3,10.7,4.4C429.1,21,466.5,36.5,504,52.1c4,1.7,4,1.6,4,5.9
	c0,132.1,0,264.2,0,396.4c0,4.2,0,4.2-3.8,5.7c-40.2,16.7-80.5,33.4-120.7,50.2c-2.1,0.9-3.9,0.9-6,0.2
	c-90.3-30.4-180.6-60.8-270.9-91.2c-34-11.5-68-22.9-102-34.4c-0.4-0.1-0.7-0.3-1-0.8C129.2,402.8,254.8,421.4,380.9,440.1z"/>
<path class="st0" d="M29.8,289.9c24-23.7,47.7-47.2,71.7-70.9c-24-23.7-47.7-47.1-71.6-70.8c0.7-0.3,1.2-0.6,1.7-0.8
	c7.9-2.7,15.9-5.3,23.8-8c2-0.7,3.3-0.4,5,0.8c22,16.7,44.1,33.3,66.1,49.9c1.9,1.4,2.9,1.3,4.5-0.3c27.7-27.5,55.5-54.9,83.3-82.4
	c10.2-10.1,20.4-20.1,30.5-30.2c1.2-1.2,2.1-1.4,3.7-0.7c21.9,9.4,43.7,18.7,65.6,27.9c1.7,0.7,2.4,1.6,2.4,3.5c0,74,0,148,0,222
	c0,1.8-0.5,2.8-2.3,3.5c-21.8,9.2-43.6,18.5-65.4,27.8c-1.8,0.8-2.9,0.4-4.3-0.9c-37.7-37.3-75.4-74.6-113.1-111.9
	c-1.9-1.9-3-2.1-5.3-0.4c-21.9,16.7-44,33.2-65.9,49.8c-1.5,1.1-2.7,1.4-4.5,0.8c-8-2.8-16.1-5.4-24.1-8.1
	C31.1,290.4,30.6,290.2,29.8,289.9z M164.9,219c27.3,20.6,54.2,40.8,81.6,61.4c0-41.2,0-81.7,0-122.9
	C219,178.2,192.1,198.4,164.9,219z"/>
</svg>
